<?xml version="1.0" encoding="UTF-8"?><svg id="a" xmlns="http://www.w3.org/2000/svg" viewBox="0 0 1080 1080"><defs><style>.d{fill:#fff;}.e{fill:none;stroke:#4379e0;stroke-width:60px;}.f{fill:#4379e0;}</style></defs><g id="b"><circle class="d" cx="540" cy="540" r="540"/><circle class="e" cx="540" cy="540" r="510"/></g><path id="c" class="f" d="M372.92,632.05l92.05-92.05-92.03-92.03c-20.35-21.08-19.76-54.65,1.32-75,20.55-19.84,53.13-19.84,73.69,0l92.03,92.03,92.05-92.05c20.71-20.71,54.28-20.71,74.99,0,20.71,20.71,20.71,54.28,0,74.99h0l-92.03,92.04,92.06,92.06c20.35,21.08,19.76,54.66-1.32,75-20.55,19.84-53.13,19.84-73.69,0l-92.06-92.06-92.05,92.05c-20.71,20.71-54.28,20.71-74.99,0-20.71-20.71-20.71-54.28,0-74.99h-.01Z"/></svg>