<?xml version="1.0" encoding="UTF-8"?><svg xmlns="http://www.w3.org/2000/svg" viewBox="0 0 470.62 472.46"><defs><style>.e{fill:#fff;}</style></defs><g id="a"/><g id="b"><g id="c"><path id="d" class="e" d="M182.26,419.46v-130.18H52.11C22.82,288.77-.51,264.61,0,235.32c.5-28.57,23.54-51.6,52.1-52.1H182.26V53.03C182.26,23.75,205.99,0,235.28,0c29.29,0,53.03,23.73,53.03,53.02h0V183.18h130.2c29.29,.51,52.62,24.68,52.1,53.97-.5,28.57-23.54,51.6-52.1,52.1h-130.2v130.18c0,29.29-23.73,53.03-53.02,53.03-29.29,0-53.03-23.73-53.03-53.02h0v.02Z"/></g></g></svg>