<svg xmlns="http://www.w3.org/2000/svg"
    xmlns:xlink="http://www.w3.org/1999/xlink" width="5196.317" height="1080" viewBox="0 0 5196.317 1080">
    <defs>
        <clipPath id="a">
            <rect width="5170" height="1080" fill="#fff" stroke="#707070" stroke-width="1"/>
        </clipPath>
        <pattern id="b" width="1" height="1" patternTransform="matrix(1, 0, 0, -1, 0, 1362)" viewBox="0 0 732 681">
            <use preserveAspectRatio="none" xlink:href="#x"/>
        </pattern>
        <pattern id="c" width="1" height="1" patternTransform="matrix(1, 0, 0, -1, 0, 913.781)" viewBox="0 0 743.738 456.891">
            <use preserveAspectRatio="none" xlink:href="#e"/>
        </pattern>
        <image id="e" preserveAspectRatio="none" width="743.738" height="456.891" xlink:href="./ROAD%20MAP-image2.png"/>
        <pattern id="d" width="1" height="1" patternTransform="matrix(1, 0, 0, -1, 0, 913.781)" viewBox="0 0 743.738 456.891">
            <use xlink:href="#e"/>
        </pattern>
        <pattern id="f" preserveAspectRatio="none" width="100%" height="100%" viewBox="0 0 889 859">
            <image width="889" height="859" xlink:href="./ROAD%20MAP-image6.png"/>
        </pattern>
        <pattern id="g" preserveAspectRatio="xMidYMid slice" width="100%" height="100%" viewBox="0 0 2480 2480">
            <image width="2480" height="2480" xlink:href="./ROAD%20MAP-image9.png"/>
        </pattern>
        <pattern id="h" preserveAspectRatio="none" width="100%" height="100%" viewBox="0 0 3000 3000">
            <image width="3000" height="3000" xlink:href="./ROAD%20MAP-image10.png"/>
        </pattern>
        <pattern id="i" preserveAspectRatio="none" width="100%" height="100%" viewBox="0 0 2048 2048">
            <image width="2048" height="2048" xlink:href="./ROAD%20MAP-image11.png"/>
        </pattern>
        <pattern id="l" preserveAspectRatio="xMidYMid slice" width="100%" height="100%" viewBox="0 0 1920 1236">
            <image width="1920" height="1236" xlink:href="./ROAD%20MAP-image13.png"/>
        </pattern>
        <pattern id="m" preserveAspectRatio="none" width="100%" height="100%" viewBox="0 0 2412 2775">
            <image width="2412" height="2775" xlink:href="./ROAD%20MAP-image14.png"/>
        </pattern>
        <pattern id="n" preserveAspectRatio="xMidYMid slice" width="100%" height="100%" viewBox="0 0 3000 3000">
            <image width="3000" height="3000" xlink:href="./ROAD%20MAP-image15.png"/>
        </pattern>
        <pattern id="o" preserveAspectRatio="none" width="100%" height="100%" viewBox="0 0 3000 4578">
            <image width="3000" height="4578" xlink:href="./ROAD%20MAP-image16.png"/>
        </pattern>
        <pattern id="p" preserveAspectRatio="xMidYMid slice" width="100%" height="100%" viewBox="0 0 3000 3000">
            <image width="3000" height="3000" xlink:href="./ROAD%20MAP-image17.png"/>
        </pattern>
        <pattern id="q" preserveAspectRatio="xMidYMid slice" width="100%" height="100%" viewBox="0 0 2667 1392">
            <image width="2667" height="1392" xlink:href="./ROAD%20MAP-image18.png"/>
        </pattern>
        <linearGradient id="r" x1="-0.196" x2="1" gradientUnits="objectBoundingBox">
            <stop offset="0" stop-color="#000224" stop-opacity="0"/>
            <stop offset="1" stop-color="#000224"/>
        </linearGradient>
        <filter id="s" x="1251.308" y="705.415" width="72.018" height="61.171" filterUnits="userSpaceOnUse">
            <feOffset dy="3" input="SourceAlpha"/>
            <feGaussianBlur stdDeviation="4" result="t"/>
            <feFlood flood-color="#010224" flood-opacity="0.698"/>
            <feComposite operator="in" in2="t"/>
            <feComposite in="SourceGraphic"/>
        </filter>
        <pattern id="v" preserveAspectRatio="xMidYMid slice" width="100%" height="100%" viewBox="0 0 2480 2480">
            <image width="2480" height="2480" xlink:href="./ROAD%20MAP-image19.png"/>
        </pattern>
        <pattern id="w" preserveAspectRatio="none" width="100%" height="100%" viewBox="0 0 914 567">
            <image width="914" height="567" xlink:href="./ROAD%20MAP-image20.png"/>
        </pattern>
        <image id="x" preserveAspectRatio="none" width="732" height="681" xlink:href="./ROAD%20MAP-image.png"/>
        <image id="y" width="947" height="623" xlink:href="./ROAD%20MAP-image8.png"/>
        <image id="z" width="85" height="85" xlink:href="./ROAD%20MAP-image11.png"/>
    </defs>
    <g transform="translate(9.334)">
        <g transform="translate(16.983)" clip-path="url(#a)">
            <rect width="732" height="681" transform="matrix(0.07, 0.998, -0.998, 0.07, 2247.68, -522.649)" fill="url(#b)"/>
            <use transform="translate(-164.574 803.555)" xlink:href="#e"/>
            <rect width="743.738" height="456.891" transform="matrix(-0.951, -0.309, 0.309, -0.951, 3520.37, 1516.179)" fill="url(#c)"/>
            <rect width="743.738" height="456.891" transform="matrix(-0.995, -0.105, 0.105, -0.995, 1826.986, 208.064)" fill="url(#d)"/>
            <use transform="matrix(0.707, 0.707, -0.707, 0.707, 4288.879, 759.515)" xlink:href="#e"/>
            <image width="1014.788" height="692.5" transform="matrix(0.966, 0.259, -0.259, 0.966, 4706.348, -523.775)" xlink:href="./ROAD%20MAP-image3.png"/>
            <image width="594" height="622" transform="translate(4415 916)" xlink:href="./ROAD%20MAP-image4.png"/>
            <image width="484" height="446" transform="translate(231.997 882.922) rotate(11)" xlink:href="./ROAD%20MAP-image5.png"/>
            <rect width="611" height="591" transform="translate(4148.631 354.321) rotate(-120)" fill="url(#f)"/>
            <use transform="translate(4467 582) scale(1.295 1.294)" xlink:href="#x"/>
            <image width="938" height="958" transform="translate(1697.257 792.948) rotate(92)" xlink:href="./ROAD%20MAP-image7.png"/>
            <use transform="translate(2103 -368)" xlink:href="#y"/>
            <use transform="translate(1638 972)" xlink:href="#y"/>
            <use transform="translate(270.651 403.486) rotate(-131)" xlink:href="#y"/>
        </g>
        <g transform="translate(16.983)">
            <path d="M10.017,278.317C26.17,224.269,69.09,119.894,175.366,55.686c149.4-90.261,354.3-59.034,450.063,43.984C724.141,205.861,665.608,343.93,782.951,422.9c62.288,41.917,130.918,38.662,159.417,37.273,104.28-5.084,236.861-67.785,259.177-176.42,1.633-7.95,19.407-102.167-47.292-154.417C1108.638,93.6,1039.1,89.708,992.64,123.2,934.814,164.873,934.093,249.044,950.8,299.13c37.62,112.774,209.253,189.591,327.319,147.293,150.917-54.067,112.215-266.184,283.236-344.707,94.992-43.615,221.427-30.552,303.793,26.594,112.837,78.288,68.762,191.369,193.322,327.319,26.775,29.223,119.776,126.739,266.97,149.339,133.448,20.49,294.957-23.248,386.744-134,117.287-141.516,56.053-318.843,139.11-347.776,68.5-23.864,122.892,91.888,264.583,124.79,109.662,25.465,215.525-11.724,296.908-55.723S3569.878,40.736,3759.405,91.52s194.817,204.557,223.051,294.18,173.165,195.778,342.239,97.8,149.156-207.319,167.136-267.014S4540.214,82.509,4716.346,91.52s258.008,0,258.008,0" transform="translate(-27 293)" fill="none" stroke="#fafafa" stroke-linecap="round" stroke-miterlimit="10" stroke-width="5" stroke-dasharray="19.966 19.966"/>
            <path d="M10.017,278.317C26.17,224.269,69.09,119.894,175.366,55.686c149.4-90.261,354.3-59.034,450.063,43.984C724.141,205.861,665.608,343.93,782.951,422.9c62.288,41.917,130.918,38.662,159.417,37.273,104.28-5.084,236.861-67.785,259.177-176.42,1.633-7.95,19.407-102.167-47.292-154.417C1108.638,93.6,1039.1,89.708,992.64,123.2,934.814,164.873,934.093,249.044,950.8,299.13" transform="translate(-27 293)" fill="none" stroke="#4379e0" stroke-linecap="round" stroke-miterlimit="10" stroke-width="15"/>
            <path d="M10.017,278.317C26.17,224.269,69.09,119.894,175.366,55.686c149.4-90.261,354.3-59.034,450.063,43.984C724.141,205.861,665.608,343.93,782.951,422.9c62.288,41.917,130.918,38.662,159.417,37.273,104.28-5.084,236.861-67.785,259.177-176.42,1.633-7.95,19.407-102.167-47.292-154.417C1108.638,93.6,1039.1,89.708,992.64,123.2,934.814,164.873,934.093,249.044,950.8,299.13c37.62,112.774,209.253,189.591,327.319,147.293,150.917-54.067,112.215-266.184,283.236-344.707,94.992-43.615,221.427-30.552,303.793,26.594,112.837,78.288,68.762,191.369,193.322,327.319,26.775,29.223,119.776,126.739,266.97,149.339,133.448,20.49,294.957-23.248,386.744-134,117.287-141.516,56.053-318.843,139.11-347.776" transform="translate(-27 293)" fill="none" stroke="#4379e0" stroke-linecap="round" stroke-miterlimit="10" stroke-width="15"/>
            <g transform="translate(319 253)">
                <circle cx="40" cy="40" r="40" fill="#4379e0"/>
                <ellipse cx="44" cy="49.5" rx="44" ry="49.5" transform="translate(-4 -19)" fill="url(#g)"/>
            </g>
            <g transform="translate(792 708)">
                <circle cx="40" cy="40" r="40" fill="#4379e0"/>
                <rect width="242.983" height="243.983" transform="matrix(0.995, 0.105, -0.105, 0.995, -79.651, -139.925)" fill="url(#h)"/>
            </g>
            <g transform="translate(998 354)">
                <path d="M40,0A40,40,0,1,1,0,40,40,40,0,0,1,40,0Z" fill="#4379e0"/>
                <g transform="translate(-10.7 -28.215)">
                    <use transform="translate(30.7 9.215)" xlink:href="#z"/>
                    <use transform="translate(-14.3 9.215)" xlink:href="#z"/>
                    <use transform="translate(1.7 4.216) scale(1.165)" xlink:href="#z"/>
                </g>
            </g>
            <g transform="translate(1237 714)">
                <circle cx="40" cy="40" r="40" transform="translate(-16 -21)" fill="#4379e0"/>
            </g>
            <g transform="translate(1634.842 351.518)">
                <circle cx="40" cy="40" r="40" transform="translate(-8.842 -20.518)" fill="#4379e0"/>
                <image width="116" height="116" transform="translate(-26.842 -52.518)" xlink:href="./ROAD%20MAP-image12.png"/>
            </g>
            <g transform="translate(1892.986 515.986)">
                <circle cx="40" cy="40" r="40" transform="translate(-15.986 -15.986)" fill="#4379e0"/>
                <text transform="translate(16.014 32.014)" fill="#fafafa" font-size="24" font-family="SegoeUI-Bold, Segoe UI" font-weight="700">
                    <tspan x="0" y="0">01</tspan>
                </text>
            </g>
            <g transform="translate(2125.986 825.986)">
                <circle cx="40" cy="40" r="40" transform="translate(-14.986 -23.986)" fill="#4379e0"/>
                <g transform="translate(-25.025 -45.61)">
                    <rect width="85" height="83" transform="translate(29.039 3.624)" fill="url(#i)"/>
                    <rect width="84" height="83" transform="translate(-11.961 3.624)" fill="url(#i)"/>
                    <rect width="98" height="97" transform="translate(3.039 -1.376)" fill="url(#i)"/>
                </g>
            </g>
            <g transform="translate(2783.986 365.986)">
                <circle cx="40" cy="40" r="40" transform="translate(0.014 0.014)" fill="#4379e0"/>
                <circle cx="40" cy="40" r="40" transform="translate(0.014 0.014)" fill="url(#l)"/>
            </g>
            <g transform="translate(3065.986 515.986)">
                <circle cx="24" cy="24" r="24" transform="translate(0.014 0.014)" fill="#4379e0"/>
                <rect width="100" height="117" transform="translate(-22.856 -61.023) rotate(3)" fill="url(#m)"/>
            </g>
            <g transform="translate(3373.986 452.986)">
                <circle cx="24" cy="24" r="24" transform="translate(0.014 0.014)" fill="#4379e0"/>
                <rect width="70.354" height="70.354" transform="translate(-6.726 -22.34)" fill="url(#n)"/>
            </g>
            <g transform="translate(3790.986 395.309)">
                <circle cx="24" cy="24" r="24" transform="translate(0.014 0.014)" fill="#4379e0"/>
                <rect width="72" height="112" transform="translate(-11.986 -63.986)" fill="url(#o)"/>
            </g>
            <g transform="translate(3939.986 671.844)">
                <circle cx="24" cy="24" r="24" transform="translate(0.014 0.014)" fill="#4379e0"/>
                <rect width="55" height="55" transform="translate(-2.986 -6.844)" fill="url(#p)"/>
            </g>
            <g transform="translate(4180.986 789.986)">
                <circle cx="24" cy="24" r="24" transform="translate(0.014 0.014)" fill="#4379e0"/>
                <rect width="217.853" height="113.447" transform="matrix(0.996, -0.087, 0.087, 0.996, -124.007, -38.143)" fill="url(#q)"/>
            </g>
            <text transform="translate(709 178)" fill="#fafafa" font-size="50" font-family="SegoeUI, Segoe UI" letter-spacing="0em">
                <tspan x="0" y="0">Q4 2021</tspan>
            </text>
            <text transform="translate(1587 178)" fill="#fafafa" font-size="50" font-family="SegoeUI, Segoe UI" letter-spacing="0em">
                <tspan x="0" y="0">Q1 2022</tspan>
            </text>
            <text transform="translate(3354 178)" fill="#fafafa" font-size="50" font-family="SegoeUI, Segoe UI" letter-spacing="0em">
                <tspan x="0" y="0">Q2-Q3 2022</tspan>
            </text>
            <text transform="translate(4413 178)" fill="#fafafa" font-size="50" font-family="SegoeUI, Segoe UI" letter-spacing="0em">
                <tspan x="0" y="0">Q4 2022</tspan>
            </text>
            <g transform="translate(-14 -39)">
                <text transform="translate(191 415)" fill="#fafafa" font-size="20" font-family="Montserrat-Bold, Montserrat" font-weight="700">
                    <tspan x="-131.1" y="19">A first free presale of 100 </tspan>
                    <tspan x="-134.86" y="43">penguins SOLD OUT in 54 </tspan>
                    <tspan x="-45.83" y="67">seconds.</tspan>
                    <tspan font-family="Montserrat-Regular, Montserrat" font-weight="400">
                        <tspan x="-165.48" y="91">The first 100 colony emperors are </tspan>
                        <tspan x="-182.48" y="115">born &amp; receive Angry Penguins Eggs </tspan>
                        <tspan x="-173.15" y="139">that will hatch after the public sale</tspan>
                    </tspan>
                </text>
                <g transform="translate(365.5 387)">
                    <circle cx="7.5" cy="7.5" r="7.5" fill="#4379e0"/>
                </g>
            </g>
            <g transform="translate(464 458)">
                <text transform="translate(213 365)" fill="#fafafa" font-size="20" font-family="Montserrat-Bold, Montserrat" font-weight="700">
                    <tspan x="-109.74" y="19">Announcing the first </tspan>
                    <tspan x="-140.58" y="43">customizable collection</tspan>
                    <tspan y="43" font-family="Montserrat-Regular, Montserrat" font-weight="400"></tspan>
                    <tspan y="43">on </tspan>
                    <tspan x="-141.77" y="67">Elrond</tspan>
                    <tspan y="67" xml:space="preserve" font-family="Montserrat-Regular, Montserrat" font-weight="400"> via the purchase and </tspan>
                    <tspan x="-148.38" y="91" font-family="Montserrat-Regular, Montserrat" font-weight="400">resale of penguin accessories, </tspan>
                    <tspan x="-154.16" y="115" font-family="Montserrat-Regular, Montserrat" font-weight="400">a feature available through the </tspan>
                    <tspan x="-97.3" y="139" font-family="Montserrat-Regular, Montserrat" font-weight="400">creation of our own </tspan>
                    <tspan x="-65.43" y="163" font-family="Montserrat-Regular, Montserrat" font-weight="400">marketplace.</tspan>
                </text>
                <g transform="translate(360.5 345)">
                    <circle cx="7.5" cy="7.5" r="7.5" fill="#4379e0"/>
                </g>
            </g>
            <g transform="translate(931.5 448.225)">
                <text transform="translate(209 365)" fill="#fafafa" font-size="20" font-family="Montserrat-Bold, Montserrat" font-weight="700">
                    <tspan x="-114.2" y="19">Launch of the discord </tspan>
                    <tspan x="-119.34" y="43">votes for the emperors</tspan>
                    <tspan y="43" font-family="Montserrat-Regular, Montserrat" font-weight="400"></tspan>
                    <tspan x="-118.51" y="67" font-family="Montserrat-Regular, Montserrat" font-weight="400">to determine the future </tspan>
                    <tspan x="-88.98" y="91" font-family="Montserrat-Regular, Montserrat" font-weight="400">of the project, the </tspan>
                    <tspan x="-116.51" y="115" font-family="Montserrat-Regular, Montserrat" font-weight="400">results are published in </tspan>
                    <tspan x="-96.98" y="139" font-family="Montserrat-Regular, Montserrat" font-weight="400">the penguin-agora.</tspan>
                </text>
                <g transform="translate(322 340.551)">
                    <circle cx="7.5" cy="7.5" r="7.5" fill="#4379e0"/>
                </g>
            </g>
            <g transform="translate(2760.5 238.857)" opacity="0.5">
                <text transform="translate(176 361)" fill="#fafafa" font-size="20" font-family="Montserrat-Bold, Montserrat" font-weight="700">
                    <tspan x="-147.41" y="19">Birth of the Angry Penguins</tspan>
                    <tspan y="19" font-family="Montserrat-Regular, Montserrat" font-weight="400"></tspan>
                    <tspan x="-141.2" y="43" font-family="Montserrat-Regular, Montserrat" font-weight="400">Hatching of the eggs 1 week </tspan>
                    <tspan x="-145.14" y="67" font-family="Montserrat-Regular, Montserrat" font-weight="400">after the public sale &amp; launch </tspan>
                    <tspan x="-114.75" y="91" font-family="Montserrat-Regular, Montserrat" font-weight="400">of the Angry Penguins.</tspan>
                </text>
                <g transform="translate(322 340.551)">
                    <circle cx="7.5" cy="7.5" r="7.5" fill="#4379e0"/>
                </g>
            </g>
            <g transform="translate(3875.5 514.309)" opacity="0.5">
                <text transform="translate(178 361)" fill="#fafafa" font-size="20" font-family="Montserrat-Bold, Montserrat" font-weight="700">
                    <tspan x="-113.13" y="19">Deployment of Angry </tspan>
                    <tspan x="-116.51" y="43">Penguins’ Launchpad.</tspan>
                </text>
                <g transform="translate(322 340.551)">
                    <circle cx="7.5" cy="7.5" r="7.5" fill="#4379e0"/>
                </g>
            </g>
            <g transform="translate(4369 102.225)" opacity="0.5">
                <text transform="translate(178 361)" fill="#fafafa" font-size="20" font-family="Montserrat-Bold, Montserrat" font-weight="700">
                    <tspan x="-77.29" y="19">Coming soon…</tspan>
                </text>
                <g transform="translate(322 340.551)">
                    <circle cx="7.5" cy="7.5" r="7.5" fill="#4379e0"/>
                </g>
            </g>
            <g transform="translate(1332.5 86.225)">
                <text transform="translate(213 365)" fill="#fafafa" font-size="20" font-family="Montserrat-Bold, Montserrat" font-weight="700">
                    <tspan x="-100.95" y="19">Community vote to </tspan>
                    <tspan x="-96.31" y="43">choose the design</tspan>
                    <tspan font-family="Montserrat-Regular, Montserrat" font-weight="400">
                        <tspan x="-107.74" y="67">of the Angry Penguin </tspan>
                        <tspan x="-110.99" y="91">Eggs and the royalties </tspan>
                        <tspan x="-70.29" y="115">they generate</tspan>
                    </tspan>
                </text>
                <g transform="translate(326 344.551)">
                    <circle cx="7.5" cy="7.5" r="7.5" fill="#4379e0"/>
                </g>
            </g>
            <g transform="translate(1790 162)">
                <text transform="translate(218 191)" fill="#fafafa" font-size="20" font-family="Montserrat-Bold, Montserrat" font-weight="700">
                    <tspan x="0" y="19">The first 600 Prime </tspan>
                    <tspan x="0" y="43">emperors receive their </tspan>
                    <tspan x="0" y="67">eggs</tspan>
                    <tspan y="67" xml:space="preserve" font-family="Montserrat-Regular, Montserrat" font-weight="400"> (Prime emperors </tspan>
                    <tspan x="0" y="91" font-family="Montserrat-Regular, Montserrat" font-weight="400">= people who bought </tspan>
                    <tspan x="0" y="115" font-family="Montserrat-Regular, Montserrat" font-weight="400">eggs during the first </tspan>
                    <tspan x="0" y="139" font-family="Montserrat-Regular, Montserrat" font-weight="400">presale) and wait for </tspan>
                    <tspan x="0" y="163" font-family="Montserrat-Regular, Montserrat" font-weight="400">them to hatch after the </tspan>
                    <tspan x="0" y="187" font-family="Montserrat-Regular, Montserrat" font-weight="400">public sale.</tspan>
                </text>
                <g transform="translate(193 367.551)">
                    <circle cx="7.5" cy="7.5" r="7.5" fill="#4379e0"/>
                </g>
            </g>
            <g transform="translate(3661 22)" opacity="0.5">
                <text transform="translate(218 335)" fill="#fafafa" font-size="20" font-family="Montserrat-Bold, Montserrat" font-weight="700">
                    <tspan x="0" y="19">Surprise drop with the </tspan>
                    <tspan x="0" y="43">Global Penguin Society.</tspan>
                </text>
                <g transform="translate(193 367.551)">
                    <circle cx="7.5" cy="7.5" r="7.5" fill="#4379e0"/>
                </g>
            </g>
            <g transform="translate(2305 30)">
                <text transform="translate(302 349)" fill="#fafafa" font-size="30" font-family="SegoeUI-Bold, Segoe UI" font-weight="700">
                    <tspan x="-43.315" y="32">Public </tspan>
                    <tspan x="-27.048" y="57">sale</tspan>
                    <tspan font-size="21" font-family="Montserrat-Bold, Montserrat">
                        <tspan x="-62.903" y="82">MARCH 31</tspan>
                        <tspan y="82" font-size="12.249" baseline-shift="6.999300001743786">ST</tspan>
                    </tspan>
                </text>
                <g transform="translate(444 367.551)">
                    <circle cx="7.5" cy="7.5" r="7.5" fill="#4379e0"/>
                </g>
            </g>
            <g transform="translate(2476 596)">
                <text transform="translate(218 242)" fill="#fafafa" font-size="20" font-family="Montserrat-Bold, Montserrat" font-weight="700">
                    <tspan x="0" y="19">First donation made to the </tspan>
                    <tspan x="0" y="43">Global Penguin Society</tspan>
                    <tspan font-family="Montserrat-Regular, Montserrat" font-weight="400">
                        <tspan x="0" y="67">in order to clean up penguin </tspan>
                        <tspan x="0" y="91">colonies from plastic waste.</tspan>
                    </tspan>
                </text>
                <g transform="translate(193 247)">
                    <circle cx="7.5" cy="7.5" r="7.5" fill="#4379e0"/>
                </g>
            </g>
            <g transform="translate(3244 231)" opacity="0.5">
                <text transform="translate(218 242)" fill="#fafafa" font-size="20" font-family="Montserrat-Bold, Montserrat" font-weight="700">
                    <tspan x="0" y="19">Launch of our marketplace</tspan>
                    <tspan y="19" font-family="Montserrat-Regular, Montserrat" font-weight="400"></tspan>
                    <tspan x="0" y="43" font-family="Montserrat-Regular, Montserrat" font-weight="400">allowing the purchase and </tspan>
                    <tspan x="0" y="67" font-family="Montserrat-Regular, Montserrat" font-weight="400">sale of our penguins, but </tspan>
                    <tspan x="0" y="91" font-family="Montserrat-Regular, Montserrat" font-weight="400">especially the purchase of </tspan>
                    <tspan x="0" y="115" font-family="Montserrat-Regular, Montserrat" font-weight="400">attributes to customize </tspan>
                    <tspan x="0" y="139" font-family="Montserrat-Regular, Montserrat" font-weight="400">them.</tspan>
                </text>
                <g transform="translate(193 247)">
                    <circle cx="7.5" cy="7.5" r="7.5" fill="#4379e0"/>
                </g>
            </g>
            <g transform="translate(1915 509)">
                <text transform="translate(-55 365)" fill="#fafafa" font-size="20" font-family="Montserrat-Bold, Montserrat" font-weight="700">
                    <tspan x="0" y="19">2000 eggs SOLD OUT </tspan>
                    <tspan x="0" y="43">in less than 5 minutes </tspan>
                    <tspan x="0" y="67">during presale 2.</tspan>
                </text>
                <g transform="translate(186 369)">
                    <circle cx="7.5" cy="7.5" r="7.5" fill="#4379e0"/>
                </g>
            </g>
            <g transform="translate(3724 319)" opacity="0.5">
                <text transform="translate(-55 365)" fill="#fafafa" font-size="20" font-family="Montserrat-Bold, Montserrat" font-weight="700">
                    <tspan x="0" y="19">Launch of our token: </tspan>
                    <tspan x="0" y="43" font-family="Montserrat-Regular, Montserrat" font-weight="400">some penguins start to </tspan>
                    <tspan x="0" y="67" font-family="Montserrat-Regular, Montserrat" font-weight="400">generate a passive </tspan>
                    <tspan x="0" y="91" font-family="Montserrat-Regular, Montserrat" font-weight="400">income depending on </tspan>
                    <tspan x="0" y="115" font-family="Montserrat-Regular, Montserrat" font-weight="400">the rarity of their </tspan>
                    <tspan x="0" y="139" font-family="Montserrat-Regular, Montserrat" font-weight="400">attributes that will be </tspan>
                    <tspan x="0" y="163" font-family="Montserrat-Regular, Montserrat" font-weight="400">used initially to buy </tspan>
                    <tspan x="0" y="187" font-family="Montserrat-Regular, Montserrat" font-weight="400">attributes to customize </tspan>
                    <tspan x="0" y="211" font-family="Montserrat-Regular, Montserrat" font-weight="400">the penguins.</tspan>
                </text>
                <g transform="translate(186 369)">
                    <circle cx="7.5" cy="7.5" r="7.5" fill="#4379e0"/>
                </g>
            </g>
            <g transform="translate(887 -59)">
                <text transform="translate(213 365)" fill="#fafafa" font-size="20" font-family="Montserrat-Bold, Montserrat" font-weight="700">
                    <tspan x="0" y="19">500 eggs SOLD OUT in one </tspan>
                    <tspan x="0" y="43">evening during presale 1.</tspan>
                </text>
                <g transform="translate(186 398)">
                    <circle cx="7.5" cy="7.5" r="7.5" fill="#4379e0"/>
                </g>
            </g>
            <path d="M0,0V745.5" transform="translate(1506.5 104.5)" fill="none" stroke="#4379e0" stroke-linecap="round" stroke-width="5"/>
            <line y2="745.5" transform="translate(3308.5 104.5)" fill="none" stroke="#4379e0" stroke-linecap="round" stroke-width="5"/>
            <line y2="745.5" transform="translate(4367.5 104.5)" fill="none" stroke="#4379e0" stroke-linecap="round" stroke-width="5"/>
            <g transform="translate(4674.133 356.986)">
                <circle cx="24" cy="24" r="24" transform="translate(-0.133 0.014)" fill="#4379e0"/>
                <text transform="translate(11.867 31.014)" fill="#fafafa" stroke="#000224" stroke-miterlimit="10" stroke-width="2" font-size="68" font-family="SegoeUI-Bold, Segoe UI" font-weight="700">
                    <tspan x="0" y="0">?</tspan>
                </text>
            </g>
            <rect width="448" height="1080" transform="translate(4722)" fill="url(#r)"/>
            <g transform="matrix(1, 0, 0, 1, -26.32, 0)" filter="url(#s)">
                <path d="M40.676,14.878a39.109,39.109,0,0,0-9.907-3.113A29.047,29.047,0,0,0,29.5,14.4a36.375,36.375,0,0,0-10.979,0,28.161,28.161,0,0,0-1.284-2.635,38.979,38.979,0,0,0-9.914,3.121A41.547,41.547,0,0,0,.2,42.706a39.607,39.607,0,0,0,12.15,6.226,30.217,30.217,0,0,0,2.6-4.286,25.587,25.587,0,0,1-4.1-1.994c.344-.255.68-.521,1-.795a28,28,0,0,0,24.292,0c.329.274.665.54,1,.795a25.523,25.523,0,0,1-4.105,2,30.083,30.083,0,0,0,2.6,4.286,39.527,39.527,0,0,0,12.157-6.23A41.506,41.506,0,0,0,40.676,14.878ZM16.032,37.1c-2.372,0-4.317-2.214-4.317-4.911s1.9-4.914,4.317-4.914a4.607,4.607,0,0,1,4.317,4.914C20.353,34.89,18.446,37.1,16.032,37.1Zm15.953,0c-2.372,0-4.317-2.214-4.317-4.911s1.9-4.914,4.317-4.914A4.607,4.607,0,0,1,36.3,32.194C36.3,34.89,34.4,37.1,31.986,37.1Z" transform="translate(1263.31 702.65)" fill="#fafafa"/>
            </g>
            <ellipse cx="43" cy="47.5" rx="43" ry="47.5" transform="translate(1874 485)" fill="url(#g)"/>
            <circle cx="40" cy="40" r="40" transform="translate(2610 754)" fill="#4379e0"/>
            <circle cx="40" cy="40" r="40" transform="translate(2610 754)" fill="url(#v)"/>
        </g>
        <rect width="160" height="99" transform="matrix(0.407, -0.914, 0.914, 0.407, 2700.224, 675.451)" fill="url(#w)"/>
    </g>
</svg>