<?xml version="1.0" encoding="UTF-8"?>
<svg xmlns="http://www.w3.org/2000/svg" width="2856.294" height="623.743" viewBox="0 0 2856.294 623.743">
  <g id="a" data-name="Calque 1"/>
  <g id="b" data-name="Calque 2">
    <g id="c" data-name="Calque 1">
      <path id="d" data-name="Blue_line" d="M7.508,283.947C23.661,229.777,66.581,125.168,172.857,60.815,322.257-29.649,527.157,1.649,622.92,104.898c98.712,106.43,40.179,244.809,157.522,323.957,62.288,42.011,130.918,38.749,159.417,37.357,104.28-5.095,236.861-67.937,259.177-176.817,1.633-7.968,19.407-102.397-47.292-154.764-45.615-35.816-115.153-39.717-161.613-6.15-57.826,41.767-58.547,126.127-41.84,176.326,37.62,113.028,209.253,190.017,327.319,147.624,150.917-54.189,112.215-266.783,283.236-345.482,94.992-43.713,221.427-30.621,303.793,26.654,112.837,78.464,68.762,191.799,193.322,328.055,26.775,29.289,119.776,127.024,266.97,149.675,133.448,20.536,294.957-23.3,386.744-134.301,117.287-141.834,56.053-319.56,139.11-348.558" fill="none" stroke="#4379e0" stroke-linecap="round" stroke-miterlimit="10" stroke-width="15.017"/>
    </g>
  </g>
</svg>