<svg xmlns="http://www.w3.org/2000/svg" width="111.539" height="37.814" viewBox="0 0 111.539 37.814">
  <path id="Tracé_187" data-name="Tracé 187" d="M15.657,14.658V19H12.818V6.4h4.447q4.764,0,4.764,4.017a3.854,3.854,0,0,1-1.367,3.072,5.414,5.414,0,0,1-3.652,1.173Zm0-6.082V12.5h1.116q2.268,0,2.268-1.986,0-1.942-2.268-1.942Zm18.492,4.966q0,5.678-5.291,5.678-5.133,0-5.133-5.546V6.4h2.848v7.313q0,3.059,2.391,3.059,2.347,0,2.347-2.953V6.4h2.839ZM36.892,19V6.4h4.588a5.729,5.729,0,0,1,3.243.773,2.488,2.488,0,0,1,1.134,2.18,2.58,2.58,0,0,1-.69,1.784A3.625,3.625,0,0,1,43.4,12.2v.035a3.493,3.493,0,0,1,2.149.993,2.778,2.778,0,0,1,.8,2.013,3.364,3.364,0,0,1-1.239,2.747A5.186,5.186,0,0,1,41.734,19ZM39.73,8.488v2.988h1.248a2.08,2.08,0,0,0,1.384-.426,1.453,1.453,0,0,0,.505-1.173q0-1.389-2.074-1.389Zm0,5.1v3.322h1.538a2.367,2.367,0,0,0,1.542-.457,1.527,1.527,0,0,0,.558-1.248,1.425,1.425,0,0,0-.549-1.187,2.43,2.43,0,0,0-1.534-.431ZM55.938,19H48.432V6.4h2.839V16.7h4.667Zm4.535,0H57.634V6.4h2.839Zm11.9-.448a8.311,8.311,0,0,1-3.6.668,6.074,6.074,0,0,1-4.562-1.705,6.233,6.233,0,0,1-1.661-4.544,6.659,6.659,0,0,1,1.868-4.9,6.533,6.533,0,0,1,4.847-1.881,9.065,9.065,0,0,1,3.111.466V9.385a5.513,5.513,0,0,0-2.883-.756,3.824,3.824,0,0,0-2.865,1.116,4.142,4.142,0,0,0-1.09,3.023,4.062,4.062,0,0,0,1.028,2.914,3.633,3.633,0,0,0,2.769,1.085,5.905,5.905,0,0,0,3.041-.809Zm6.583-.035V15.7a5.4,5.4,0,0,0,1.661.962,5.34,5.34,0,0,0,1.811.321,4.015,4.015,0,0,0,.936-.1,2.193,2.193,0,0,0,.668-.268,1.169,1.169,0,0,0,.4-.4,1.009,1.009,0,0,0,.132-.505,1.092,1.092,0,0,0-.211-.659,2.27,2.27,0,0,0-.576-.536,6.015,6.015,0,0,0-.866-.475q-.5-.229-1.081-.466a5.517,5.517,0,0,1-2.2-1.5A3.281,3.281,0,0,1,78.9,9.93a3.416,3.416,0,0,1,.4-1.692,3.359,3.359,0,0,1,1.077-1.165A4.828,4.828,0,0,1,81.953,6.4a8.106,8.106,0,0,1,1.9-.215A11.418,11.418,0,0,1,85.6,6.3a6.861,6.861,0,0,1,1.4.365V9.3a4.239,4.239,0,0,0-.69-.387,5.466,5.466,0,0,0-.769-.277,5.866,5.866,0,0,0-.787-.163,5.567,5.567,0,0,0-.743-.053,3.873,3.873,0,0,0-.879.092,2.254,2.254,0,0,0-.668.259,1.29,1.29,0,0,0-.422.4.948.948,0,0,0-.149.523,1,1,0,0,0,.167.567,1.916,1.916,0,0,0,.475.475,5.037,5.037,0,0,0,.747.439q.439.215.993.444a11.067,11.067,0,0,1,1.358.672,4.827,4.827,0,0,1,1.033.8,3.133,3.133,0,0,1,.659,1.024,3.618,3.618,0,0,1,.229,1.34,3.59,3.59,0,0,1-.4,1.771,3.247,3.247,0,0,1-1.085,1.16,4.707,4.707,0,0,1-1.6.637,9.219,9.219,0,0,1-1.92.193,10.678,10.678,0,0,1-1.973-.176A5.956,5.956,0,0,1,78.956,18.517ZM100.709,19H97.615l-.9-2.8H92.236L91.349,19H88.272L92.86,6.4h3.366Zm-4.641-4.983L94.715,9.78A5.521,5.521,0,0,1,94.5,8.646h-.07a4.807,4.807,0,0,1-.22,1.1l-1.371,4.271ZM109.788,19h-7.506V6.4h2.839V16.7h4.667Zm9.255,0h-7.559V6.4h7.269V8.708h-4.43v2.8h4.122v2.3h-4.122V16.7h4.72Zm-97,25h3.57L19.04,29.3H15.68L9.128,44h3.486l1.3-3.15h6.825Zm-7.035-5.733,2.331-5.628,2.331,5.628Zm18.5-8.967H27.146V44h3.4V39.947h2.961c3.927,0,6.384-2.037,6.384-5.313C39.893,31.337,37.436,29.3,33.509,29.3Zm-.189,7.875H30.548v-5.1H33.32c2.079,0,3.129.945,3.129,2.562C36.449,36.23,35.4,37.175,33.32,37.175ZM55.328,44l-3.3-4.725a4.779,4.779,0,0,0,3.024-4.641c0-3.3-2.457-5.334-6.384-5.334H42.308V44h3.4V39.9h3.129L51.674,44Zm-3.717-9.366c0,1.6-1.05,2.562-3.129,2.562H45.71V32.072h2.772C50.561,32.072,51.611,33.017,51.611,34.634ZM57.743,44h3.4V29.3h-3.4Zm6.888,0H75.4V41.228H68.033V29.3h-3.4ZM81.662,29.3v2.73H84.6V44H88V29.3Zm22.365,8.841h-2.394V35.39H98.42v2.751H94.472L100.9,29.3h-3.57L90.4,38.624v2.289h7.917V44h3.318V40.913h2.394ZM107.009,37h1.984V30.042h2.744V28.425h-7.472v1.617h2.744Zm11.674-8.575v3.381h-3.9V28.425H112.8V37h1.984V33.484h3.9V37h1.984V28.425Z" transform="translate(-9.128 -6.186)" fill="#fafafa"/>
</svg>
