<?xml version="1.0" encoding="UTF-8"?>
<svg xmlns="http://www.w3.org/2000/svg" width="99.951" height="52.402" viewBox="0 0 99.951 52.402">
  <g id="a" data-name="Calque 1"/>
  <g id="b" data-name="Calque 2">
    <g id="c" data-name="Calque 1">
      <g>
        <path d="M5.154,4.055c4.209,0,4.479,2.996,4.501,6.775v.81c-.022,3.806-.292,6.775-4.501,6.775h-.99v4.535H.788V4.055H5.154Zm1.125,7.18c0-2.213-.09-3.401-1.125-3.401h-.99v6.802h.99c1.035,0,1.125-1.161,1.125-3.401Z" fill="#fafafa"/>
        <path d="M17.198,4.055h3.376V13.502c0,5.209-.135,9.717-4.771,9.717s-4.794-4.508-4.794-9.717V4.055h3.376V13.502c0,3.131,.046,5.911,1.418,5.911,1.351,0,1.396-2.78,1.396-5.911V4.055Z" fill="#fafafa"/>
        <path d="M26.564,4.055c4.637,0,4.794,2.538,4.794,5.668,0,1.809-.157,3.266-1.868,3.617,1.711,.297,2.094,1.998,2.094,3.941,0,3.131-.158,5.668-4.794,5.668h-4.637V4.055h4.411Zm-1.035,7.558h1.058c1.351,0,1.396-.837,1.396-1.89s-.045-1.89-1.418-1.89h-1.035v3.779Zm0,7.558h1.261c1.372,0,1.417-.837,1.417-1.89s-.045-1.89-1.417-1.89h-1.261v3.779Z" fill="#fafafa"/>
        <path d="M36.2,4.055v15.116h3.084v3.779h-6.46V4.055h3.376Z" fill="#fafafa"/>
        <path d="M40.524,4.055h3.376V22.95h-3.376V4.055Z" fill="#fafafa"/>
        <path d="M54.683,15.985c0,3.995-.878,7.234-4.749,7.234-4.637,0-4.794-4.508-4.794-9.717s.135-9.718,4.794-9.718c3.871,0,4.749,3.212,4.749,7.234h-3.376c0-1.917-.405-3.428-1.373-3.428-1.373,0-1.418,2.78-1.418,5.912s.045,5.911,1.418,5.911c.968,0,1.373-1.484,1.373-3.428h3.376Z" fill="#fafafa"/>
        <path d="M68.438,18.631c0,2.187-1.237,4.589-4.681,4.589-3.871,0-4.771-3.293-4.771-7.126h3.376c0,1.7,.585,3.347,1.598,3.347,.495,0,1.103-.351,1.103-1.053,0-2.213-6.099-4.157-6.099-9.825,0-2.564,1.237-4.778,4.523-4.778,4.951,0,4.727,4.994,4.727,8.098h-3.376c0-2.16,.157-4.319-1.261-4.319-.765,0-1.237,.647-1.237,1.646,0,3.644,6.099,4.562,6.099,9.42Z" fill="#fafafa"/>
        <path d="M76.565,4.055l3.129,18.895h-3.376l-.405-2.402h-3.354l-.405,2.402h-3.376l3.129-18.895h4.658Zm-3.398,12.714h2.116l-1.058-7.747-1.059,7.747Z" fill="#fafafa"/>
        <path d="M83.861,4.055v15.116h3.083v3.779h-6.459V4.055h3.376Z" fill="#fafafa"/>
        <path d="M94.555,4.055v3.779h-2.994v3.779h2.724v3.779h-2.724v3.779h2.994v3.779h-6.37V4.055h6.37Z" fill="#fafafa"/>
        <path d="M12.008,45.95l-.017-8.4-3.436,6.92h-1.218l-3.419-6.74v8.22H1.385v-14H3.619l4.369,8.7,4.303-8.7h2.218l.034,14h-2.535Z" fill="#fafafa"/>
        <path d="M24.999,42.95h-5.42l-1.034,3h-2.769l5.203-14h2.668l5.221,14h-2.835l-1.034-3Zm-.851-2.46l-1.852-5.36-1.851,5.36h3.702Z" fill="#fafafa"/>
        <path d="M37.523,45.95l-2.252-3.9h-2.484v3.9h-2.702v-14h5.054c1.033,0,1.932,.207,2.693,.62,.761,.413,1.348,1,1.759,1.76,.411,.76,.617,1.66,.617,2.7s-.208,1.937-.625,2.69c-.417,.753-1.01,1.33-1.776,1.73l2.618,4.5h-2.901Zm-.685-10.73c-.422-.42-1.039-.63-1.851-.63h-2.201v4.88h2.201c.812,0,1.429-.213,1.851-.64,.423-.426,.634-1.026,.634-1.8,0-.787-.211-1.39-.634-1.81Z" fill="#fafafa"/>
        <path d="M44.702,45.26c-.962-.62-1.718-1.48-2.268-2.58-.551-1.1-.826-2.343-.826-3.73s.275-2.63,.826-3.73c.55-1.1,1.306-1.96,2.268-2.58s2.043-.93,3.244-.93c1.011,0,1.926,.214,2.743,.64,.817,.427,1.503,1.04,2.06,1.84l-1.734,1.92c-.79-1.093-1.768-1.64-2.936-1.64-.723,0-1.367,.19-1.935,.57-.566,.38-1.009,.91-1.325,1.59-.317,.68-.476,1.453-.476,2.32s.158,1.64,.476,2.32c.316,.68,.759,1.21,1.325,1.59,.567,.38,1.212,.57,1.935,.57,1.168,0,2.146-.553,2.936-1.66l1.734,1.92c-.557,.813-1.245,1.433-2.068,1.86-.822,.426-1.74,.64-2.751,.64-1.19,0-2.266-.31-3.228-.93Z" fill="#fafafa"/>
        <path d="M65.273,31.95v14h-2.702v-5.74h-5.303v5.74h-2.702v-14h2.702v5.52h5.303v-5.52h2.702Z" fill="#fafafa"/>
        <path d="M79.832,39.02c.545,.713,.817,1.597,.817,2.65,0,.813-.179,1.563-.534,2.25-.355,.687-.897,1.237-1.626,1.65s-1.62,.62-2.677,.62c-.822,0-1.632-.13-2.426-.39-.796-.26-1.471-.63-2.026-1.11l1.051-2.48c.444,.4,.958,.71,1.542,.93,.584,.22,1.182,.33,1.793,.33,.678,0,1.212-.157,1.601-.47,.39-.313,.584-.756,.584-1.33,0-1.147-.729-1.72-2.185-1.72h-1.234v-2.14l2.401-3.26h-4.97v-2.6h8.172v2.1l-2.635,3.6c1.022,.2,1.807,.657,2.352,1.37Z" fill="#fafafa"/>
        <path d="M86.402,31.95v14h-2.701v-11.4h-2.335v-2.6h5.036Z" fill="#fafafa"/>
        <path d="M88.973,39.19c-.415-.128-.745-.29-.992-.484l.506-1.306c.233,.179,.516,.325,.846,.438,.331,.113,.655,.169,.973,.169,.642,0,.962-.19,.962-.571,0-.179-.087-.307-.262-.385-.176-.078-.444-.144-.808-.198-.428-.078-.781-.167-1.06-.268s-.521-.28-.725-.537c-.204-.256-.306-.622-.306-1.096,0-.396,.096-.748,.286-1.055,.191-.307,.471-.546,.837-.717s.799-.256,1.298-.256c.369,0,.737,.048,1.104,.146s.669,.231,.909,.402l-.506,1.294c-.46-.311-.963-.467-1.507-.467-.324,0-.567,.055-.729,.164s-.243,.249-.243,.419c0,.195,.088,.331,.263,.408,.175,.078,.454,.152,.836,.222,.428,.085,.778,.177,1.051,.274,.271,.097,.508,.274,.709,.531,.201,.256,.302,.614,.302,1.073,0,.389-.098,.734-.292,1.038s-.478,.538-.851,.706c-.373,.167-.815,.25-1.327,.25-.435,0-.858-.064-1.273-.192Z" fill="#fafafa"/>
        <path d="M97.022,38.986c-.148,.132-.332,.231-.549,.297-.218,.066-.446,.099-.686,.099-.622,0-1.104-.19-1.444-.571-.34-.381-.51-.94-.51-1.679v-2.577h-.808v-1.399h.808v-1.527h1.517v1.527h1.303v1.399h-1.303v2.553c0,.265,.057,.469,.17,.612,.113,.144,.273,.216,.481,.216,.239,0,.443-.078,.612-.233l.408,1.283Z" fill="#fafafa"/>
      </g>
    </g>
  </g>
</svg>