<?xml version="1.0" encoding="UTF-8"?>
<svg xmlns="http://www.w3.org/2000/svg" width="123.599" height="51.1" viewBox="0 0 123.599 51.1">
  <g id="a" data-name="Calque 1"/>
  <g id="b" data-name="Calque 2">
    <g id="c" data-name="Calque 1">
      <g isolation="isolate">
        <path d="M1,24.999C1,15.299,1.25,6.998,10.551,6.998c9.15,0,9.5,8.301,9.5,18.001,0,7.051-.149,13.801-3.6,16.301l2.55,1.851-3.75,3.75-3.9-3.9h-.8C1.3,43,1,34.649,1,24.999Zm9.551,13.251c4.1,0,4.25-7.501,4.25-13.251s-.15-13.251-4.25-13.251c-4.2,0-4.301,7.501-4.301,13.251s.101,13.251,4.301,13.251Z" fill="#fafafa"/>
        <path d="M30,7.698V42.5h-5.25V13.498l-1.801,.05v-4.75l7.051-1.1Z" fill="#fafafa"/>
        <path d="M50.199,30.749c-2.45,2.101-3.851,4.001-3.851,7.001h11.651v4.75h-16.901v-4.75c0-7.251,3.3-9.451,6.5-12.051,3.351-2.65,6.551-6.45,6.551-9.301,0-1.2-.75-4.65-4.05-4.65-3.45,0-3.801,5.2-3.801,8.45v1.45l.05,.551v.3h-5.3v-.75c0-6.751,.35-14.751,9.25-14.751,6.65,0,9.101,4.6,9.101,9.4,0,6.95-5.5,11.2-9.2,14.351Z" fill="#fafafa"/>
        <path d="M80.4,24.999c0,9.65-.301,18.001-9.501,18.001s-9.501-8.351-9.501-18.001,.25-18.001,9.501-18.001c9.2,0,9.501,8.351,9.501,18.001Zm-9.501,13.251c4.15,0,4.25-7.451,4.25-13.251s-.1-13.251-4.25-13.251-4.25,7.45-4.25,13.251,.1,13.251,4.25,13.251Z" fill="#fafafa"/>
        <path d="M92.3,30.749c-2.45,2.101-3.851,4.001-3.851,7.001h11.65v4.75h-16.9v-4.75c0-7.251,3.3-9.451,6.5-12.051,3.351-2.65,6.551-6.45,6.551-9.301,0-1.2-.75-4.65-4.051-4.65-3.45,0-3.8,5.2-3.8,8.45v1.45l.05,.551v.3h-5.301v-.75c0-6.751,.351-14.751,9.251-14.751,6.65,0,9.101,4.6,9.101,9.4,0,6.95-5.5,11.2-9.2,14.351Z" fill="#fafafa"/>
        <path d="M113.399,30.749c-2.45,2.101-3.851,4.001-3.851,7.001h11.65v4.75h-16.9v-4.75c0-7.251,3.3-9.451,6.5-12.051,3.351-2.65,6.551-6.45,6.551-9.301,0-1.2-.75-4.65-4.051-4.65-3.45,0-3.8,5.2-3.8,8.45v1.45l.05,.551v.3h-5.301v-.75c0-6.751,.351-14.751,9.251-14.751,6.65,0,9.101,4.6,9.101,9.4,0,6.95-5.5,11.2-9.2,14.351Z" fill="#fafafa"/>
      </g>
    </g>
  </g>
</svg>