<?xml version="1.0" encoding="UTF-8"?>
<svg xmlns="http://www.w3.org/2000/svg" width="192.148" height="51.1" viewBox="0 0 192.148 51.1">
  <g id="a" data-name="Calque 1"/>
  <g id="b" data-name="Calque 2">
    <g id="c" data-name="Calque 1">
      <g isolation="isolate">
        <path d="M1,24.999C1,15.299,1.25,6.998,10.551,6.998c9.15,0,9.5,8.301,9.5,18.001,0,7.051-.149,13.801-3.6,16.301l2.55,1.851-3.75,3.75-3.9-3.9h-.8C1.301,43,1,34.649,1,24.999Zm9.551,13.251c4.1,0,4.25-7.501,4.25-13.251s-.15-13.251-4.25-13.251c-4.2,0-4.301,7.501-4.301,13.251s.101,13.251,4.301,13.251Z" fill="#fafafa"/>
        <path d="M32.101,30.749c-2.45,2.101-3.851,4.001-3.851,7.001h11.65v4.75H23v-4.75c0-7.251,3.3-9.451,6.5-12.051,3.351-2.65,6.551-6.45,6.551-9.301,0-1.2-.75-4.65-4.051-4.65-3.449,0-3.8,5.2-3.8,8.45v1.45l.05,.551v.3h-5.301v-.75c0-6.751,.351-14.751,9.251-14.751,6.65,0,9.101,4.6,9.101,9.4,0,6.95-5.5,11.2-9.2,14.351Z" fill="#fafafa"/>
        <path d="M56.801,24.849h-12.751v-4.75h12.751v4.75Z" fill="#fafafa"/>
        <path d="M59.549,24.999c0-9.7,.25-18.001,9.551-18.001,9.15,0,9.501,8.301,9.501,18.001,0,7.051-.149,13.801-3.601,16.301l2.551,1.851-3.75,3.75-3.9-3.9h-.801c-9.25,0-9.551-8.351-9.551-18.001Zm9.551,13.251c4.101,0,4.25-7.501,4.25-13.251s-.149-13.251-4.25-13.251c-4.199,0-4.3,7.501-4.3,13.251s.101,13.251,4.3,13.251Z" fill="#fafafa"/>
        <path d="M98.601,32.199c0,7.251-.7,10.801-8.9,10.801-8.251,0-8.851-3.65-8.851-11.001h4.801c0,2.301,0,6.251,4.05,6.251,4.101,0,4.101-3.95,4.101-6.251,0-2.25-.45-4.5-4.101-4.5h-2.65v-4.5h2.501c3.649,0,4.149-2.75,4.149-5.001,0-2.3,.101-6.25-4.149-6.25-4.051,0-4.051,3.95-4.051,6.25h-4.75c0-6.65,1.149-11,8.801-11,6.449,0,8.949,2,8.949,9.25,0,4.501,0,8.001-4.1,8.851h.05c3.9,.75,4.15,3.2,4.15,7.101Z" fill="#fafafa"/>
        <path d="M118.749,30.749c-2.45,2.101-3.851,4.001-3.851,7.001h11.65v4.75h-16.9v-4.75c0-7.251,3.3-9.451,6.5-12.051,3.351-2.65,6.551-6.45,6.551-9.301,0-1.2-.75-4.65-4.051-4.65-3.449,0-3.8,5.2-3.8,8.45v1.45l.05,.551v.3h-5.301v-.75c0-6.751,.351-14.751,9.251-14.751,6.65,0,9.101,4.6,9.101,9.4,0,6.95-5.5,11.2-9.2,14.351Z" fill="#fafafa"/>
        <path d="M148.949,24.999c0,9.65-.3,18.001-9.5,18.001s-9.501-8.351-9.501-18.001,.25-18.001,9.501-18.001c9.2,0,9.5,8.351,9.5,18.001Zm-9.5,13.251c4.15,0,4.25-7.451,4.25-13.251s-.1-13.251-4.25-13.251-4.25,7.45-4.25,13.251,.1,13.251,4.25,13.251Z" fill="#fafafa"/>
        <path d="M160.85,30.749c-2.451,2.101-3.852,4.001-3.852,7.001h11.651v4.75h-16.901v-4.75c0-7.251,3.301-9.451,6.5-12.051,3.352-2.65,6.551-6.45,6.551-9.301,0-1.2-.75-4.65-4.05-4.65-3.45,0-3.8,5.2-3.8,8.45v1.45l.049,.551v.3h-5.3v-.75c0-6.751,.351-14.751,9.251-14.751,6.65,0,9.1,4.6,9.1,9.4,0,6.95-5.5,11.2-9.199,14.351Z" fill="#fafafa"/>
        <path d="M181.949,30.749c-2.451,2.101-3.852,4.001-3.852,7.001h11.651v4.75h-16.901v-4.75c0-7.251,3.301-9.451,6.5-12.051,3.352-2.65,6.551-6.45,6.551-9.301,0-1.2-.75-4.65-4.05-4.65-3.45,0-3.8,5.2-3.8,8.45v1.45l.049,.551v.3h-5.3v-.75c0-6.751,.351-14.751,9.251-14.751,6.65,0,9.1,4.6,9.1,9.4,0,6.95-5.5,11.2-9.199,14.351Z" fill="#fafafa"/>
      </g>
    </g>
  </g>
</svg>