<?xml version="1.0" encoding="UTF-8"?>
<svg xmlns="http://www.w3.org/2000/svg" width="4969.343" height="613.732" viewBox="0 0 4969.343 613.732">
  <g id="a" data-name="Calque 1"/>
  <g id="b" data-name="Calque 2">
    <g id="c" data-name="Calque 1">
      <path id="d" data-name="White_doted_line" d="M2.503,278.941C18.656,224.772,61.576,120.162,167.852,55.81,317.252-34.654,522.152-3.357,617.915,99.893c98.712,106.43,40.179,244.809,157.522,323.957,62.288,42.011,130.918,38.749,159.417,37.357,104.28-5.095,236.861-67.937,259.177-176.817,1.633-7.968,19.407-102.397-47.292-154.764-45.615-35.816-115.153-39.717-161.613-6.15-57.826,41.767-58.547,126.127-41.84,176.326,37.62,113.028,209.253,190.017,327.319,147.624,150.917-54.189,112.215-266.783,283.236-345.482,94.992-43.713,221.427-30.621,303.793,26.654,112.837,78.464,68.762,191.799,193.322,328.055,26.775,29.289,119.776,127.024,266.97,149.675,133.448,20.536,294.957-23.3,386.744-134.301,117.287-141.834,56.053-319.56,139.11-348.558,68.5-23.918,122.892,92.095,264.583,125.071,109.662,25.522,215.525-11.75,296.908-55.848,81.383-44.098,157.093-151.864,346.62-100.966,189.527,50.898,194.817,205.017,223.051,294.841,28.234,89.825,173.165,196.218,342.239,98.02,169.074-98.198,149.156-207.785,167.136-267.614,17.98-59.829,48.382-134.278,224.515-125.247,176.132,9.031,258.008,0,258.008,0" fill="none" stroke="#fafafa" stroke-dasharray="0 0 19.988 19.988" stroke-linecap="round" stroke-miterlimit="10" stroke-width="5.006"/>
    </g>
  </g>
</svg>