<?xml version="1.0" encoding="UTF-8"?>
<svg xmlns="http://www.w3.org/2000/svg" width="936.031" height="232.25" xmlns:xlink="http://www.w3.org/1999/xlink" viewBox="0 0 936.031 232.25">
  <defs>
    <style>
      .f {
        fill: #fff;
      }

      .g {
        fill: #e01717;
      }

      .h {
        fill: #070707;
      }

      .i {
        fill: #4379e0;
      }

      .j {
        fill: url(#b);
      }

      .j, .k, .l {
        mix-blend-mode: multiply;
        opacity: .46;
      }

      .k {
        fill: url(#c);
      }

      .l {
        fill: url(#d);
      }

      .m {
        isolation: isolate;
      }

      .n {
        fill: url(#e);
        opacity: .65;
      }
    </style>
    <linearGradient id="b" x1="160.912" y1="141.64" x2="220.491" y2="141.64" gradientTransform="matrix(1, 0, 0, 1, 0, 0)" gradientUnits="userSpaceOnUse">
      <stop offset="0" stop-color="#5b0707" stop-opacity="0"/>
      <stop offset="1" stop-color="#000"/>
    </linearGradient>
    <linearGradient id="c" x1="105.447" y1="173.317" x2="189.454" y2="173.317" gradientTransform="matrix(1, 0, 0, 1, 0, 0)" gradientUnits="userSpaceOnUse">
      <stop offset="0" stop-color="#fff" stop-opacity="0"/>
      <stop offset="1" stop-color="#000"/>
    </linearGradient>
    <linearGradient id="d" x1="182.009" y1="101.296" x2="230.161" y2="75.693" gradientTransform="matrix(1, 0, 0, 1, 0, 0)" gradientUnits="userSpaceOnUse">
      <stop offset="0" stop-color="#302d2e" stop-opacity=".958"/>
      <stop offset="1" stop-color="#fff" stop-opacity="0"/>
    </linearGradient>
    <linearGradient id="e" x1="25.225" y1="70.247" x2="152.826" y2="70.247" xlink:href="#c"/>
  </defs>
  <g isolation="isolate">
    <g id="a" data-name="Layer 1">
      <g>
        <path d="M299.695,121.912l5.29-16.03,34.63,.204,6.248,15.85,28.214,.014-39.597-97.537-49.298-16.82,12.27,21.543-10.773-8.469,10.236,19.779-.071,.216-5.446-4.246,4.185,8.064-25.57,77.418,29.682,.015Zm30.806-39.148l-17.693-.243,7.985-24.322,9.708,24.565Z" fill="#4379e0"/>
        <polygon points="472.146 29.023 446.788 28.174 446.554 82.989 417.261 27.185 383.444 26.053 384.719 121.956 410.505 121.969 410.168 65.384 440.588 121.984 471.096 122 472.146 29.023" fill="#4379e0"/>
        <path d="M495.779,109.354c3.537,4.303,7.928,7.73,13.163,10.284,5.205,2.542,11.276,3.808,18.205,3.808,6.153,0,11.523-1.158,16.123-3.467,4.591-2.305,8.468-5.394,11.639-9.268,3.168-3.872,5.595-8.361,7.28-13.474,1.688-5.12,2.639-10.46,2.848-16.021l.217-8.741-38.395-.718-.413,15.39,16.916,.222c-.787,3.746-2.454,6.637-5.006,8.684-2.553,2.048-6.065,3.053-10.545,3.013-3.372-.03-6.207-.717-8.507-2.059-2.305-1.348-4.152-3.073-5.539-5.185-1.393-2.112-2.365-4.468-2.913-7.067-.553-2.601-.8-5.203-.742-7.806,.058-2.605,.421-5.229,1.093-7.873,.669-2.642,1.735-5.015,3.199-7.117,1.461-2.098,3.39-3.777,5.785-5.033,2.39-1.253,5.296-1.841,8.706-1.756,3.479,.086,6.326,.832,8.546,2.231,2.213,1.398,3.957,3.208,5.237,5.428l17.929-17.595c-3.412-4.508-7.659-8.14-12.747-10.893-5.114-2.768-11.241-4.276-18.388-4.519-7.109-.241-13.4,.882-18.854,3.371-5.47,2.498-10.076,5.925-13.808,10.275-3.735,4.356-6.566,9.398-8.488,15.118-1.92,5.712-2.926,11.697-3.021,17.947-.094,6.229,.743,12.183,2.508,17.859,1.754,5.651,4.416,10.637,7.97,14.962Z" fill="#4379e0"/>
        <path d="M622.412,88.407c2.829-.584,5.476-1.673,7.938-3.268,2.458-1.594,4.623-3.54,6.494-5.839,1.87-2.299,3.377-4.898,4.523-7.796,1.143-2.9,1.812-5.99,2.007-9.273,.223-3.757-.192-7.321-1.249-10.697-1.061-3.384-2.623-6.358-4.688-8.917-2.07-2.569-4.567-4.62-7.488-6.152-2.932-1.537-6.105-2.362-9.521-2.477l-40.813-1.367-3.682,89.431,22.623,.012,1.454-30.549,18.4,30.56,28.575,.015-24.572-33.683Zm-1.352-24.087c-.096,1.813-.761,3.373-1.995,4.684-1.237,1.314-2.701,1.952-4.4,1.919l-13.769-.27,.646-13.568,13.817,.341c1.705,.042,3.106,.73,4.207,2.063,1.097,1.329,1.595,2.941,1.494,4.83Z" fill="#4379e0"/>
        <polygon points="670.146 122.102 691.135 122.113 693.319 91.264 722.924 37.422 699.782 36.647 684.363 68.145 672.214 35.723 648.248 34.921 672.223 91.573 670.146 122.102" fill="#4379e0"/>
      </g>
      <g>
        <path d="M333.294,152.504c-2.224-2.717-4.878-4.809-8.046-6.369-3.123-1.513-6.588-2.259-10.393-2.192l-44.178,.775,5.835,22.58-6.499,62.928,21.487-.006,2.703-25.158,13.935-.074c3.715-.02,7.317-.829,10.805-2.383,3.453-1.604,6.581-3.768,9.384-6.495,2.766-2.732,5.079-5.935,6.936-9.655,1.861-3.728,3.049-7.645,3.521-11.843l.094-.803c.473-4.159,.221-8.126-.801-11.755-1.022-3.68-2.602-6.879-4.783-9.549Zm-16.523,22.263c-.228,2.208-1.167,4.141-2.774,5.703-1.565,1.607-3.373,2.42-5.383,2.44l-12.156,.119,1.742-16.012,12.154-.158c2.017-.026,3.653,.752,4.903,2.241,1.25,1.536,1.784,3.409,1.513,5.666Z" fill="#fff"/>
        <polygon points="342.313 230.207 398.822 230.192 401.736 207.42 367.309 207.583 368.545 197.38 398.757 197.175 401.428 176 370.952 176.334 372.2 166.058 406.014 165.619 408.951 142.293 352.485 143.283 342.313 230.207" fill="#fff"/>
        <polygon points="473.612 192.918 454.08 141.501 424.346 142.023 412.856 230.188 435.648 230.182 442.768 177.231 463.012 230.175 491.653 230.167 504.655 140.614 480.912 141.03 473.612 192.918" fill="#fff"/>
        <path d="M550.575,195.318l17.28-.12c-1.296,3.775-3.379,6.717-6.245,8.782-2.91,2.11-6.635,3.149-11.177,3.17-3.39,.016-6.198-.602-8.332-1.902s-3.748-2.991-4.887-5.073c-1.096-2.034-1.769-4.364-1.977-6.892-.205-2.579-.139-5.114,.247-7.653,.389-2.591,1.099-5.187,2.085-7.789,1.032-2.606,2.377-4.973,4.125-7.102,1.702-2.082,3.851-3.829,6.398-5.14,2.597-1.313,5.582-1.992,9.004-2.037,3.565-.046,6.362,.559,8.431,1.866,2.116,1.307,3.654,3.066,4.707,5.225l20.873-18.326c-3.007-4.34-7-7.766-11.926-10.276-4.97-2.457-11.023-3.647-18.291-3.518-7.155,.127-13.608,1.532-19.318,4.257-5.738,2.668-10.716,6.204-14.938,10.605-4.207,4.338-7.609,9.339-10.208,14.951-2.592,5.597-4.325,11.413-5.249,17.498-.876,6.023-.835,11.785,.164,17.289,.952,5.497,2.922,10.357,5.821,14.538,2.942,4.227,6.825,7.587,11.699,10.083,4.831,2.546,10.772,3.797,17.784,3.797,6.254,0,11.937-1.159,16.959-3.483,5.037-2.378,9.478-5.49,13.283-9.485,3.813-3.957,6.924-8.508,9.336-13.753,2.462-5.209,4.104-10.672,5.061-16.339l1.315-8.843-39.651,.39-2.372,15.28Z" fill="#fff"/>
        <path d="M653.782,193.359c-.366,1.993-1.01,3.836-1.976,5.531-.965,1.693-2.206,3.238-3.717,4.536-1.461,1.296-3.095,2.343-4.896,3.045-1.755,.75-3.582,1.154-5.477,1.162-1.847,.008-3.527-.379-5.043-1.113-1.472-.684-2.733-1.714-3.742-2.993-1.057-1.278-1.768-2.806-2.236-4.483-.466-1.678-.499-3.508-.192-5.49l9.396-55.242-24.816,.435-8.825,53.403c-.908,5.425-.724,10.539,.461,15.296,1.228,4.801,3.239,8.959,6.076,12.526,2.791,3.566,6.329,6.35,10.661,8.4,4.29,2.053,9.069,3.08,14.296,3.08,5.284,0,10.454-1.031,15.417-3.097,5.022-2.071,9.534-4.887,13.681-8.501,4.109-3.623,7.598-7.849,10.516-12.73,2.874-4.844,4.815-10.043,5.817-15.548l9.687-54.194-25.409,.446-9.68,55.531Z" fill="#fff"/>
        <polygon points="688.461 230.115 713.646 230.108 731.13 136.642 705.419 137.093 688.461 230.115" fill="#fff"/>
        <polygon points="802.667 190.451 783.447 135.724 749.788 136.314 731.921 230.103 757.616 230.096 768.659 173.775 788.543 230.088 820.987 230.079 840.757 134.719 813.843 135.191 802.667 190.451" fill="#fff"/>
        <path d="M918.037,149.846l5.298-4.473,12.696-10.674-38.975-1.868h-.053c-1.358-.081-2.774-.109-4.194-.084-4.415,.078-8.945,.845-13.583,2.246-4.634,1.451-8.898,3.471-12.852,6.112-3.945,2.636-7.372,5.886-10.278,9.697-2.9,3.803-4.867,8.159-5.851,13.014-.926,4.275-.968,7.91-.233,10.963,.791,2.999,2.089,5.525,3.896,7.58,1.806,2.055,4.061,3.744,6.713,5.069,2.649,1.377,5.376,2.495,8.229,3.406,2.854,.912,5.676,1.669,8.463,2.271,2.836,.654,5.311,1.312,7.419,2.024,2.108,.713,3.797,1.48,5.059,2.354,1.21,.875,1.659,2.065,1.352,3.519-.296,1.349-.935,2.492-1.909,3.377-.975,.884-2.089,1.614-3.341,2.188-1.195,.522-2.482,.942-3.856,1.206-1.322,.264-2.58,.424-3.667,.428-4.705,.02-8.767-1.148-12.192-3.504-3.423-2.354-6.094-5.536-8.009-9.601l-21.782,18.91c1.914,2.908,4.218,5.457,6.862,7.648,2.645,2.192,5.586,3.975,8.814,5.454,3.179,1.479,6.605,2.55,10.276,3.265,3.674,.715,7.44,1.073,11.35,1.073,4.276,0,8.725-.616,13.345-1.797,4.629-1.184,9.015-2.937,13.163-5.311,4.105-2.379,7.763-5.384,10.863-8.963,3.06-3.639,5.197-7.905,6.309-12.851,1.43-6.418,1.305-11.585-.33-15.44-1.63-3.91-4.14-6.976-7.371-9.197-3.275-2.272-7.035-3.909-11.167-4.965-4.121-1.108-7.946-2.008-11.516-2.805-3.624-.744-6.551-1.651-8.794-2.618-2.288-1.018-3.171-2.575-2.747-4.723,.287-1.311,.861-2.364,1.68-3.265,.813-.848,1.821-1.542,2.969-2.081,1.149-.54,2.33-.87,3.605-1.097,1.218-.174,2.379-.295,3.425-.309,5.027-.068,8.961,.877,11.798,2.837,2.896,1.908,5.489,4.713,7.87,8.518,0,0-.006,.053,.047,.052l-.006,.053,13.539-8.375-5.778,1.708-.275,.109-.03-.211,12.558-11.527,3.182-2.91-4.55,1.341-7.44,2.227Z" fill="#fff"/>
      </g>
      <g>
        <path d="M11.975,198.829c-6.843-3.126-11.119-10.072-10.781-17.587,.525-11.678,.903-29.401-.707-42.28C-2.114,118.155,1.446-3.496,122.747,.077c.722,.021,1.443,.079,2.159,.17,10.839,1.379,91.14,14.312,106.027,96.342,0,0,3.585,18.579-2.608,46.937-3.79,17.355-2.453,40.326-.844,55.538,1.103,10.436-5.141,20.249-15.074,23.636-30.072,10.254-98.798,22.559-200.432-23.871Z" fill="#070707"/>
        <path d="M225.566,81.925c1.043,1.799,2.797,6.572,5.389,5.209,2.592-1.363-1.384-11.173-1.384-11.173,0,0-3.042-2.671-4.358-1.867-1.546,.944-1.19,5.169,.354,7.831Z"/>
        <path d="M22.177,40.98c-.111-.01-.253-.03-.385-.061-1.003-.243-2.037-.73-2.989-1.277-.111-.061-.213-.122-.314-.193-.334-2.807-.223-6.11,1.023-9.484,.203-.578,.436-1.125,.679-1.641-.02,.324-.02,.638-.03,.963,0,2.351,.182,4.661,.547,6.971,.193,1.155,.415,2.31,.841,3.475,.111,.284,.233,.578,.405,.871,.041,.071,.091,.152,.132,.223,.041,.061,.071,.101,.091,.152Z" fill="#070707"/>
        <path d="M26.554,40.514c-.213,.861-.557,1.641-1.044,2.31-.233,.324-.78,1.003-1.824,1.631-.567,.344-1.277,.679-2.158,.932-.446,.132-.932,.253-1.479,.334-.436-1.165-.983-2.817-1.337-4.793-.091-.476-.162-.963-.223-1.479,.101,.071,.203,.132,.314,.193,.952,.547,1.986,1.034,2.989,1.277,.132,.03,.274,.051,.385,.061-.02-.051-.051-.091-.091-.152-.041-.071-.091-.152-.132-.223-.172-.294-.294-.588-.405-.871-.426-1.165-.648-2.32-.841-3.475-.365-2.31-.547-4.62-.547-6.971,.01-.324,.01-.638,.03-.963,.233-.466,.476-.912,.719-1.337,4.762,4.367,6.556,9.747,5.644,13.527Z"/>
        <path d="M15.703,37.617c-.739,1.228-1.429,2.594-2.014,4.105-3.489,9.016-1.117,17.721,.38,21.893,5-.697,7.048-3.084,7.654-3.883,3.727-4.917,1.983-14.525-6.02-22.114Z" fill="#070707"/>
        <path d="M47.496,19.983c-1.109,.461-7.568,3.211-13.865-.133-1.374-.73-2.456-1.604-3.323-2.457,.349,1.455,.4,2.982,.111,4.433-.038,.297-.11,.586-.175,.876,2.834,2.059,4.269,5.834,3.855,9.319,3.862,1.967,8.212,2.739,11.154,1.239,2.086-1.064,3.121-3.094,3.318-3.497,2.129-4.358-.73-9.204-1.074-9.779Z" fill="#070707"/>
        <path d="M151.884,98.074c-.061-.03-.122-.071-.182-.091,.132,.071,.243,.132,.355,.182-.061-.03-.112-.061-.172-.091Z"/>
        <g>
          <path d="M156.889,112.836c-.111-.051-.223-.111-.355-.182,.061,.02,.122,.061,.182,.091,.061,.03,.111,.061,.172,.091Z" fill="#fff"/>
          <path d="M156.717,112.745c-.061-.03-.122-.071-.182-.091,.132,.071,.243,.132,.355,.182-.061-.03-.111-.061-.172-.091Z"/>
        </g>
        <path d="M99.238,104.69s-29.01-36.832-45.633-13.69c0,0-5.867,13.038,19.883,19.883,25.75,6.845,27.38-2.608,25.75-6.193Z" fill="#fff"/>
        <circle cx="82.777" cy="102.245" r="8.638"/>
        <path d="M92.067,100.127s-5.541-.978-6.519,0c-.978,.978,10.104,2.282,6.519,0Z" fill="#fff"/>
        <path d="M202.238,113.491s-3.911-5.867,1.63-11.408c5.541-5.541,16.297-14.668,19.883-12.386,3.585,2.282,11.408,19.231,1.63,23.794-9.778,4.563-22.165,2.282-23.142,0Z" fill="#fff"/>
        <circle cx="212.523" cy="106.5" r="8.004"/>
        <path d="M221.131,104.537s-5.134-.906-6.04,0c-.906,.906,9.363,2.114,6.04,0Z" fill="#fff"/>
        <path d="M185.318,172.752c-.241-.179-.486-.378-.74-.587,.284,.202,.531,.401,.74,.587Z"/>
        <path d="M189.454,175.92c-5.076,6.687-18.714,22.899-29.799,20.032-13.729-3.536-53.235-44.603-54.208-45.606,.648,.152,1.297,.304,1.956,.446,.699,.152,1.398,.304,2.107,.446,2.523,.507,5.147,.963,7.853,1.348,6.829,.983,14.114,1.601,21.217,1.874,8.998,2.199,31.4,8.481,38.888,18.025,1.297,1.652,2.513,2.888,3.627,3.779,4.408,3.526,7.316,1.672,7.62-1.175,.243,.284,.496,.557,.74,.831Z" fill="#e01717"/>
        <path d="M188.711,175.092c-.378,3.563-4.84,5.571-11.245-2.604-7.484-9.55-29.886-15.828-38.889-18.028,4.85,.189,9.619,.218,14.117,.101,13.563-.352,26.265,9.955,35.082,19.502,.196,.215,.391,.43,.587,.642,.117,.13,.235,.257,.349,.388Z"/>
        <path d="M212.667,160.428s-4.56,22.818-12.716,29.333c0,0-.557-.902-1.591-2.422l-.01-.01c-1.743-2.543-4.823-6.789-8.896-11.409-.243-.274-.496-.547-.74-.831-.122-.132-.233-.253-.355-.385-.193-.213-.385-.426-.588-.638-8.815-9.555-21.511-19.859-35.078-19.505-4.499,.112-9.271,.091-14.114-.101-9.909-.385-20.153-1.429-29.07-3.222-.709-.142-1.408-.294-2.107-.446-.659-.142-1.307-.294-1.956-.446-9.19-2.209-16.526-5.33-19.9-9.474-8.471-10.436,17.6-5.542,28.036-7.822,9.17-2.006,26.678-2.503,41.857-22.362,1.149-1.497,2.283-3.105,3.398-4.834,1.429-2.217,2.46-4.661,3.217-7.188,1.145-3.822,4.523-9.285,14.106-.167,13.365,12.706,30.964,41.715,36.507,43.022,5.542,1.307,7.822,1.307,7.822,1.307,0,0,.324,12.382-7.822,17.6Z" fill="#e01717"/>
        <path d="M212.667,160.428s-4.56,22.818-12.716,29.333c0,0-.557-.902-1.591-2.422l-.01-.01c-1.601-10.274-.636-32.239-8.896-53.767-8.26-21.528-26.354-30.534-26.354-30.534,0,0-3.556,1.885-1.601-1.601,0,0,1.297-15.644,14.662-2.928,13.365,12.706,30.964,41.715,36.507,43.022,5.542,1.307,7.822,1.307,7.822,1.307,0,0,.324,12.382-7.822,17.6Z" fill="#b" mix-blend-mode="multiply" opacity=".46"/>
        <path d="M189.454,175.92c-5.076,6.687-18.714,22.899-29.799,20.032-13.729-3.536-53.235-44.603-54.208-45.606,.648,.152,1.297,.304,1.956,.446,.699,.152,1.398,.304,2.107,.446,2.523,.507,5.147,.963,7.853,1.348,6.019,7.062,16.587,16.779,32.251,21.329,9.079,2.634,20.974,6.09,31.481,2.351,4.408,3.526,7.316,1.672,7.62-1.175,.243,.284,.496,.557,.74,.831Z" fill="#c" mix-blend-mode="multiply" opacity=".46"/>
        <path d="M151.496,97.873c-10.426-5.593-20.822-11.176-31.187-16.86-10.74-5.907-21.491-11.824-32.13-17.914-2.675-1.51-5.309-3.07-7.964-4.6l-3.962-2.33c-1.317-.79-2.645-1.56-3.952-2.361-5.269-3.141-10.396-6.464-15.361-10.021-4.063-2.928-7.994-6.039-11.713-9.382-.831-.73-1.641-1.479-2.442-2.239l-1.652-1.591c-.537-.537-1.064-1.084-1.601-1.631l-.79-.821-.507-.547-.274-.294c-.507-.567-1.034-1.115-1.53-1.692-.486-.578-.993-1.155-1.469-1.743-.476-.598-.963-1.175-1.418-1.783-.456-.608-.912-1.216-1.337-1.834-.223-.314-.436-.628-.638-.942-.203-.304-.405-.638-.578-.942l-.355-.598-.334-.567-.415,1.267c-.729,2.249-1.246,4.509-1.479,6.87-.101,1.175-.132,2.371,.03,3.577,.081,.598,.203,1.206,.405,1.804,.111,.294,.233,.588,.375,.871,.071,.142,.122,.233,.172,.355,.051,.111,.091,.213,.112,.304h-.02c-.091-.01-.203-.03-.324-.061-.476-.111-.983-.334-1.479-.567-.983-.486-1.956-1.084-2.867-1.723-.912-.638-1.814-1.337-2.503-2.118-.162-.193-.314-.405-.385-.557-.03-.061-.081-.172-.152-.284-.02-.03-.051-.071-.071-.101-.02-.03-.091-.101-.152-.142-.041-.041-.203-.122-.334-.142-.193-.02-.385,.041-.476,.111-.142,.091-.162,.132-.213,.193-.051,.071-.051,.091-.081,.142-.03,.041-.041,.071-.051,.101l-.03,.091c-.03,.101-.051,.193-.071,.284-.051,.304-.081,.588-.101,.871-.02,.324-.02,.638-.03,.963,0,2.351,.182,4.661,.547,6.971,.193,1.155,.415,2.31,.841,3.475,.111,.284,.233,.578,.405,.871,.041,.071,.091,.152,.132,.223,.041,.061,.071,.101,.091,.152-.111-.01-.253-.03-.385-.061-1.003-.243-2.037-.73-2.989-1.277-.111-.061-.213-.122-.314-.193-.365-.223-.719-.456-1.054-.709-.426-.324-.831-.689-1.135-1.074-.071-.091-.142-.193-.193-.284-.041-.051-.051-.081-.091-.152-.041-.081-.081-.162-.142-.253-.041-.051-.061-.091-.122-.152-.051-.061-.112-.132-.284-.223-.101-.041-.203-.081-.395-.071-.182,.02-.304,.101-.405,.193-.061,.061-.132,.152-.152,.193-.03,.051-.051,.101-.071,.142-.091,.284-.091,.436-.101,.618-.02,.648,.03,1.226,.091,1.824,.01,.132,.03,.253,.051,.385,.122,1.034,.314,2.047,.517,3.07,.466,2.28,1.074,4.529,1.864,6.728,.395,1.094,.841,2.178,1.358,3.242,.02,.051,.051,.091,.071,.142,.334,.669,.709,1.317,1.084,1.945,.193,.324,.385,.648,.578,.963,.091,.152,.193,.304,.294,.456,.304,.486,.608,.963,.932,1.439,.294,.446,.588,.892,.902,1.337,.567,.851,1.155,1.682,1.743,2.513,1.348,1.875,2.736,3.719,4.154,5.532,1.429,1.824,2.888,3.607,4.408,5.35,1.52,1.743,3.08,3.445,4.793,5.036,.871,.79,1.753,1.56,2.847,2.178,.557,.314,1.216,.507,1.854,.567,.638,.061,1.267,.01,1.874-.112,1.206-.243,2.32-.689,3.374-1.226,1.054-.527,2.057-1.135,3.03-1.773,.973-.628,1.915-1.297,2.857-1.925,.233-.162,.476-.314,.709-.446,.223-.142,.476-.263,.618-.304l.466-.132,.415-.152,.8-.274c2.128-.679,4.367-.993,6.627-.973,2.259,.01,4.519,.294,6.748,.699,.567,.101,1.115,.253,1.672,.375,.547,.132,1.115,.243,1.662,.395,1.094,.324,2.199,.618,3.283,.973,1.074,.375,2.158,.74,3.232,1.125l3.182,1.287c.537,.203,1.044,.456,1.571,.689l1.56,.709c.517,.243,1.044,.466,1.56,.719l1.54,.75c4.114,2.047,8.136,4.256,12.159,6.485,4.023,2.229,8.035,4.478,12.159,6.525,2.057,1.033,4.134,2.026,6.262,2.928,2.118,.902,4.266,1.753,6.464,2.442,2.199,.699,4.438,1.287,6.708,1.692,.648,.111,1.297,.213,1.956,.294,.172,.02,.344,.041,.517,.051,.162,.03,.334,.051,.497,.061,1.297,.132,2.604,.193,3.911,.182,.578,0,1.155,0,1.733-.051l.861-.061c.284-.02,.578-.041,.861-.081l1.712-.233,1.692-.345c1.348-.304,2.685-.699,3.992-1.175,.132-.041,.263-.091,.395-.142,.041-.02,.081-.03,.122-.041,.061-.03,.132-.051,.193-.071,.618-.233,1.226-.486,1.834-.75,0,0-.415-.213-1.196-.628Z" fill="#fff"/>
        <path d="M205.348,50.566s3.987-.89,4.635-6.304c.649-5.414,.322-10.005,.322-10.005,.483,.498,1.469,.125,2.138,1.145,3.502,5.342,2.639,11.402,2.325,13.611-.565,3.965-2.042,7.136-3.431,9.39" fill="#070707"/>
        <path d="M231.855,82.888c-.101-1.165-.385-2.209-.659-3.263-.476-1.712-1.034-3.394-1.601-5.056-.132-.375-.253-.74-.385-1.115-.709-2.026-1.449-4.043-2.189-6.059-.729-2.016-1.479-4.023-2.199-6.039-.355-1.013-.709-2.016-1.033-3.03-.324-1.013-.648-2.037-.871-3.04-.061-.253-.091-.486-.132-.73-.01-.122-.01-.223-.03-.334v-.395c-.01-.557-.041-1.104-.081-1.652-.101-1.104-.263-2.199-.567-3.293-.081-.274-.172-.547-.274-.821-.061-.142-.122-.284-.203-.436-.041-.081-.091-.162-.162-.253l-.061-.081-.101-.101c-.041-.03-.132-.091-.193-.122-.111,0-.355,3.475-.355,3.475,0,0-.03-3.384-.122-4.803-.091-1.429-.496-2.189-.902-3.222-.203-.517-.436-1.033-.699-1.53-.132-.253-.274-.497-.436-.75-.101-.132-.162-.243-.355-.436-.02-.02-.071-.061-.111-.091-.081-.02-.598-.091-.598-.091l.355,3.323c-.142-.466-1.256-4.205-1.51-4.742-.476-.983-.983-1.956-1.581-2.888-.294-.466-.608-.932-.983-1.378-.182-.223-.385-.436-.618-.648-.243-.203-.507-.415-.922-.547l-.162-.041c-.061-.01-.132-.01-.193-.01h-.01c-.132-.01-.274,.02-.415,.071-.132,.051-.263,.142-.365,.223-.081,.091-.182,.203-.233,.284-.213,.385-.263,.709-.314,1.013-.01,.061,0,.122-.01,.193,.03,.091,.061,.192,.081,.284,.466,2.412,1.023,4.874,1.196,7.346,.01,.061,.02,.111,.02,.172,.162,1.054,.213,2.118,.162,3.171,.01,.03,.01,.061,.01,.101,.142,1.895,.111,3.81-.071,5.705-.213,2.31-.648,4.6-1.277,6.839-1.125,4.093-2.857,8.025-4.914,11.753-2.067,3.729-4.489,7.275-7.113,10.639-2.3,2.969-4.762,5.796-7.366,8.511-.081,.101-.172,.193-.274,.294l-.01,.01c-.263,.284-.537,.557-.811,.841-.132,.142-.274,.274-.415,.415-1.368,1.388-2.776,2.736-4.215,4.053-1.51,1.398-3.05,2.766-4.651,4.053-.132,.111-.203,.162-.203,.162,.243,.132,.507,.243,.76,.355,.01,0,.01,.01,.02,.01,.111,.061,.223,.101,.334,.152,.01,0,.02,.01,.03,.01,.162,.071,.334,.142,.507,.203,1.439,.567,2.969,.892,4.519,.973,2.158,.112,4.327-.203,6.404-.76,4.175-1.155,8.045-3.192,11.662-5.512,3.627-2.341,7.012-5.016,10.284-7.812,1.631-1.398,3.232-2.837,4.833-4.266,.79-.719,1.591-1.439,2.401-2.097,.203-.162,.415-.314,.608-.436s.385-.213,.588-.263c.405-.091,.831-.03,1.246,.162,.486,.233,.942,.578,1.368,.993,.304,.294,.598,.618,.882,.952,.679,.8,1.287,1.662,2.016,2.523,.182,.213,.375,.426,.628,.638,.132,.101,.274,.203,.486,.294,.051,.02,.122,.041,.182,.051,.071,.01,.142,.03,.223,.03,.152,0,.334-.051,.466-.132,.274-.182,.385-.385,.466-.547,.071-.172,.132-.314,.162-.496,.03-.182,.071-.365,.061-.507-.01-.152,0-.314-.01-.456Z" fill="#fff"/>
        <path d="M231.831,83.338c.01,.142-.03,.324-.061,.507-.03,.182-.091,.324-.162,.496-.081,.162-.193,.365-.466,.547-.132,.081-.314,.132-.466,.132-.081,0-.152-.02-.223-.03-.061-.01-.132-.03-.182-.051-.213-.091-.355-.193-.486-.294-.253-.213-.446-.426-.628-.638-.729-.861-1.337-1.723-2.016-2.523-.284-.334-.578-.659-.882-.952-.426-.415-.882-.76-1.368-.993-.415-.193-.841-.253-1.246-.162-.203,.051-.395,.142-.588,.263s-.405,.274-.608,.436c-.811,.659-1.611,1.378-2.401,2.097-1.601,1.429-3.202,2.867-4.833,4.266-3.273,2.797-6.657,5.471-10.284,7.812-3.617,2.32-7.488,4.357-11.662,5.512-2.077,.557-4.245,.871-6.404,.76-1.55-.081-3.08-.405-4.519-.973-.172-.061-.344-.132-.507-.203-.01,0-.02-.01-.03-.01-.111-.051-.223-.091-.334-.152-.01,0-.01-.01-.02-.01-.253-.111-.517-.223-.76-.355,0,0,.071-.051,.203-.162,1.601-1.287,3.141-2.655,4.651-4.053,1.439-1.317,2.847-2.665,4.215-4.053,1.186-.132,2.361-.355,3.506-.669,4.175-1.155,8.045-3.192,11.662-5.512,3.627-2.341,7.012-5.016,10.284-7.812,1.631-1.398,3.232-2.837,4.833-4.266,.79-.719,1.591-1.439,2.401-2.097,.203-.162,.415-.314,.608-.436s.385-.213,.588-.263c.405-.091,.831-.03,1.246,.162,.486,.233,.942,.578,1.368,.993,.304,.294,.598,.618,.882,.952,.679,.8,1.287,1.662,2.016,2.523,.122,.142,.253,.294,.405,.436,.567,1.662,1.125,3.344,1.601,5.056,.274,1.054,.557,2.097,.659,3.263,.01,.142,0,.304,.01,.456Z" fill="#d" mix-blend-mode="multiply" opacity=".46"/>
        <path d="M152.826,98.379c-22.505,10.284-43.147-7.373-65.965-18.457-21.826-10.503-30.543-5.742-32.175-5.418-1.631,.324-9.216,7.319-13.775,5.688-2.908-1.044-9.553-8.229-14.903-15.423-.942-2.979-1.042-6.078-.262-4.943,1.652,2.401,9.859,4.539,7.508,1.905-2.341-2.634-4.387-14.854-3.1-12.726,1.287,2.118,11.784,6.566,8.937,2.695-2.847-3.881-1.125-12.686-1.125-12.686,0,0,10.528,13.993,41.38,27.428,13.983,6.1,33.923,13.78,51.563,20.356,12.787,6.829,21.916,11.581,21.916,11.581Z" fill="#e" opacity=".65"/>
      </g>
    </g>
  </g>
</svg>