<?xml version="1.0" encoding="utf-8"?>
<!-- Generator: Adobe Illustrator 26.2.0, SVG Export Plug-In . SVG Version: 6.00 Build 0)  -->
<svg version="1.1" id="Calque_1" xmlns="http://www.w3.org/2000/svg" xmlns:xlink="http://www.w3.org/1999/xlink" x="0px" y="0px"
	 viewBox="0 0 1000 370" style="enable-background:new 0 0 1000 370;" xml:space="preserve">
<style type="text/css">
	.st0{fill:#010202;}
</style>
<g>
	<path id="SVGID_1_" class="st0" d="M912.4,303.1c-16.4,0-28.4-12.1-28.4-28.1c0-16,12.1-28.1,28.4-28.1c16.4,0,28.4,11.9,28.4,28.1
		C940.8,291.1,928.7,303.1,912.4,303.1L912.4,303.1z M59.2,275c0-16,11.9-28.1,27.7-28.1c12.8,0,23,7.9,25.8,20.2h-8.9
		c-2.4-7.2-8.9-11.5-16.8-11.5c-10.7,0-18.6,8.1-18.6,19.4c0,11.3,7.9,19.4,18.6,19.4c8.3,0,14.5-4.7,17.1-12.2h9
		c-2.8,12.6-13,20.9-26,20.9C70.9,302.9,59.2,291.1,59.2,275z M581.9,285h9c0,6,5.1,9.4,11.3,9.4c5.8,0,10.7-3,10.7-7.9
		c0-5.5-5.8-6.6-12.2-8.3c-8.3-2.1-17.7-4.3-17.7-15.4c0-9.6,7.3-15.4,18.8-15.4c11.7,0,18.6,6.4,18.6,16.6h-8.9
		c0-5.5-4.3-8.3-10-8.3c-5.5,0-9.8,2.4-9.8,7c0,5.1,5.5,6.2,11.9,7.9c8.5,2.1,18.3,4.5,18.3,16c0,10.7-8.7,16.6-19.6,16.6
		C590.2,302.7,581.9,296,581.9,285z M524.5,293.7v8.5h-32.2v-54.1h31.3v8.3h-22.4v14.1h20.5v8.1h-20.5v15.1H524.5L524.5,293.7z
		 M468.7,248.1l-20.9,54.1h-8.3l-21.5-54.1h9.8l15.8,41.4l15.4-41.4H468.7L468.7,248.1z M385.7,248.1h8.9v54.1h-8.9V248.1z
		 M361.7,256.4h-15.8v45.8h-8.9v-45.8h-15.8v-8.3h40.5V256.4z M293.9,290.3H270l-4.7,11.9h-9.4l21.7-53.9h8.3l22.4,53.9h-9.6
		L293.9,290.3z M235.5,293.7v8.5h-32.2v-54.1h31.3v8.3h-22.4v14.1h20.5v8.1h-20.5v15.1H235.5L235.5,293.7z M157,282h-10.2v20h-8.9
		v-54.1h20.9c10.4,0,18.1,7.2,18.1,17.1c0,7.3-4.3,13.2-10.9,15.6l12.4,21.3h-10L157,282z M682,256.4h-15.8v45.8h-8.9v-45.8h-15.8
		v-8.3H682L682,256.4L682,256.4z M705.3,281.8v-33.7h8.9v33.2c0,7.9,5.3,13.2,12.8,13.2c7.3,0,12.6-5.3,12.6-13.2v-33.2h8.9v33.7
		c0,12.4-9.2,21.3-21.7,21.3C714.6,303.1,705.3,294.3,705.3,281.8z M823.6,275c0,15.6-11.5,26.9-27.3,26.9h-19v-54.1h19
		C812.1,248.1,823.6,259.4,823.6,275z M849.4,248.1h8.9v54.1h-8.9V248.1z M931.8,275c0-11.1-8.3-19.4-19.4-19.4S893,264.1,893,275
		c0,10.9,8.5,19.4,19.4,19.4C923.5,294.4,931.8,286.2,931.8,275z M814.6,275c0-10.9-7.7-18.6-18.6-18.6h-10v37.5h10
		C806.9,293.7,814.6,285.8,814.6,275z M146.6,273.7h11.7c5.8,0,9.6-3.6,9.6-8.7s-3.8-8.7-9.6-8.7h-11.7V273.7z M273,282.4h17.9
		l-9-22.8L273,282.4z"/>
	<g>
		<polygon class="st0" points="686.6,186.5 580.3,186.5 633.5,126.7 580.3,66.9 686.6,66.9 633.5,126.7 		"/>
		<polygon class="st0" points="564.8,186.5 458.2,186.5 512.1,66.9 		"/>
		<path class="st0" d="M389.6,126.7V67.2c-32.7,0-59.5,26.7-59.5,59.5s26.7,59.5,59.5,59.5c32.7,0,59.5-26.7,59.5-59.5L389.6,126.7
			L389.6,126.7z"/>
	</g>
</g>
</svg>
